<svg width="23" height="26" viewBox="0 0 23 26" fill="none" xmlns="http://www.w3.org/2000/svg">
<path d="M5.89973 20.054L5.89973 10.8717C5.89973 8.33611 7.95525 6.28059 10.4909 6.28059L17.3776 6.28059M5.89973 20.054C5.89973 22.5896 7.95525 24.6451 10.4909 24.6451H13.1803C14.3979 24.6451 15.5657 24.1614 16.4267 23.3004L20.624 19.1031C21.485 18.2421 21.9687 17.0744 21.9687 15.8567V10.8717C21.9687 8.33611 19.9132 6.28059 17.3776 6.28059M5.89973 20.054C3.36411 20.054 1.30859 17.9985 1.30859 15.4629L1.30859 6.28059C1.30859 3.74497 3.36411 1.68945 5.89973 1.68945L12.7864 1.68945C15.322 1.68945 17.3776 3.74497 17.3776 6.28059M15.082 24.6451V22.3496C15.082 19.8139 17.1375 17.7584 19.6731 17.7584H21.9687" stroke="#797C7B" stroke-width="1.72167" stroke-linejoin="round"/>
</svg>
